<?xml version='1.0' encoding='utf-8'?>
<svg xmlns="http://www.w3.org/2000/svg" version="1.1" id="mnemonic" x="0px" y="0px" viewBox="0 0 240 234" style="enable-background:new 0 0 240 234;" xml:space="preserve">
<style type="text/css">
	.st0{fill-rule:evenodd;clip-rule:evenodd;fill:#DA91FF;}
</style>
<g transform="translate(30.0000,29.2500) scale(0.75)" data-icon-pad="1"><path class="st0" d="M0,0v234h240V0H0z M115.9,68.1c0,1.7-0.8,1.7-1.5,1.5c-5.1-2.5-12.7-4-21.5-4c-24.7,0-41.1,18.8-41.1,51.1  c0,39.9,22.6,51.7,41.1,51.7c8.4,0,14.1-0.6,20.3-2.7c0.8-0.4,1.5-0.4,1.5,1.1v17.3h0c0,1.3-0.4,1.9-1.5,2.3  c-5.5,2.3-14.3,3.2-23.4,3.2c-32.9,0-62-21.5-62-72.1c0-43.5,25.7-72.6,65-72.6c10.3,0,17.9,1.1,21.9,3c1.1,0.4,1.3,1.1,1.3,2.3  V68.1z M212.3,185.8c0,1.3-0.4,1.7-1.5,1.7h-20c-1.1,0-1.5-0.6-1.5-1.7v-63.9c0-12.7-5.3-19.6-15.4-19.6c-6.5,0-12.2,2.1-16.9,6.3  V186h0c0,1.1-0.4,1.5-1.3,1.5h-20.3c-1.1,0-1.5-0.6-1.5-1.5V48c0-0.8,0.2-1.3,1.5-1.3h20.3c0.8,0,1.3,0.4,1.3,1.3v42  c6.5-5.1,14.6-8.2,24.7-8.2c13.7,0,30.6,7,30.6,37.8V185.8z" />
</g></svg>