<?xml version='1.0' encoding='utf-8'?>
<svg xmlns="http://www.w3.org/2000/svg" version="1.1" id="Layer_1" x="0px" y="0px" viewBox="0 0 240 234" style="enable-background:new 0 0 240 234;" xml:space="preserve">
<style type="text/css">
	.st0{fill:#A33196;}
</style>
<g transform="translate(30.0000,29.2500) scale(0.75)" data-icon-pad="1"><g>
	<path class="st0" d="M66.9,81.2c-4.3-1.3-8.7-2-13.2-1.9c-2,0-3.7,0-5.1,0.1c-1.4,0-3,0.1-4.7,0.2v66.7c1.1,0,2.1,0,3.1,0.1   c0.9,0.1,1.9,0.1,2.8,0.2c1,0.1,2.1,0.1,3.3,0.1c4.6,0.1,9.2-0.7,13.6-2.3c4-1.4,7.5-3.7,10.5-6.8c3-3.2,5.3-7,6.7-11.1   c1.6-4.8,2.4-9.9,2.4-15c0.1-4.8-0.7-9.6-2.3-14.1C81.2,89.6,74.9,83.6,66.9,81.2z" />
	<path class="st0" d="M0,0v234h240V0H0z M105.1,131.9c-1.9,5.6-4.8,10.8-8.6,15.4c-3.5,4.2-7.7,7.8-12.3,10.7   c-4.5,2.8-9.5,4.9-14.7,6.3c-5,1.3-10.2,2-15.4,2H42.8c-4,0-7.8,0-11.2-0.1c-3.5-0.1-6.1-0.1-7.8-0.2c-0.7,0-1-0.6-1-1.6V164V62   c-0.1-0.6,0.4-1.2,1-1.3h0.1c1.5-0.1,3.8-0.2,6.7-0.2c3-0.1,6.4-0.1,10.4-0.2c4-0.1,8.2-0.1,12.7-0.1c12.2,0,22.4,2.2,30.4,6.6   c7.7,4.1,14,10.4,18.1,18.1c4,7.7,6,16.5,6,26.5C108.3,118.4,107.3,125.3,105.1,131.9z M221.1,86.2l-21.6,77.1   c-0.1,0.4-0.3,0.8-0.6,1.1c0,0.5-0.4,0.7-0.9,0.6h-18.7c-0.4,0.1-0.9-0.1-1.2-0.4c-0.3-0.4-0.5-0.8-0.6-1.2   c-1.9-8-3.5-15.2-4.8-21.3c-1.3-6.2-2.4-11.4-3.2-15.7c-0.8-4.3-1.5-7.9-2.1-10.9c-0.5-3-1-5.5-1.3-7.6H166   c-1,4.4-1.9,8.7-2.8,12.8c-0.8,4.1-1.8,8.3-2.8,12.5s-2.1,8.8-3.4,13.8c-1.2,5-2.6,10.5-4.1,16.4c-0.2,1.1-0.7,1.6-1.6,1.6h-18.7   c-0.5,0.1-1-0.1-1.4-0.3c-0.3-0.3-0.5-0.7-0.7-1.1L111,86.3c-0.3-0.9,0.1-1.3,1.2-1.3h18.9c0.9,0,1.4,0.3,1.5,1   c2,8.8,3.7,16.4,5,22.8c1.3,6.4,2.4,11.8,3.1,16.3s1.4,8.2,1.9,11c0.5,2.8,0.9,5.2,1.2,7h0.3c0.2-1.6,0.4-3.1,0.7-4.7   c0.4-1.9,0.9-4.4,1.5-7.5c0.6-3.1,1.3-6.7,2.2-10.9c0.9-4.2,1.9-9,3.1-14.6c1.1-5.5,2.7-11.8,4.6-18.9c0-0.4,0.2-0.9,0.4-1.3   c0.1-0.2,0.5-0.3,1.1-0.3h19.6c0.6,0,0.9,0.4,1,1.1c1.7,7.3,3.1,13.7,4.3,19.2c1.1,5.5,2.1,10.4,3,14.7c0.8,4.2,1.5,7.9,1.9,10.9   c0.4,3.1,0.9,5.6,1.3,7.7c0.3,1.7,0.6,3.4,0.7,5.1h0.3c0.5-2,0.9-4.4,1.3-7.1c0.4-2.7,0.9-5.7,1.6-9.1c0.6-3.4,1.3-7.1,2.1-11.2   c0.7-4.1,1.7-8.6,2.8-13.7c1.1-5,2.3-10.5,3.7-16.4c0.2-0.9,0.6-1.3,1.3-1.3h17.5C221,84.8,221.3,85.3,221.1,86.2z" />
</g>
</g></svg>